External Loads File
version=1
nRows=46
nColumns=13
Range=5.000000e-03-10 seconds
endheader
time 	forceRightX 	forceRightY 	forceRightZ 	pointRightX 	pointRightY 	pointRightZ 	forceLeftX 	forceLeftY 	forceLeftZ 	pointLeftX 	pointLeftY 	pointLeftZ 		
7.505000 -37.049311 39.706858 -0.000000 0.362580 0.472430 -0.138906 248.701150 358.200762 -0.000000 0.190188 0.167490 -0.378162
7.510000 -33.683642 58.751507 -0.000000 0.369500 0.469394 -0.138225 237.873635 328.399490 -0.000000 0.182923 0.171979 -0.378280
7.515000 -32.088281 79.339089 -0.000000 0.375757 0.465853 -0.137634 225.815893 299.647021 -0.000000 0.176000 0.176995 -0.378479
7.520000 -32.247481 101.726992 -0.000000 0.381752 0.461918 -0.136395 213.146613 272.603824 -0.000000 0.169658 0.182430 -0.378593
7.525000 -33.847113 126.204530 -0.000000 0.387161 0.457128 -0.135523 200.605149 247.789141 -0.000000 0.163834 0.188482 -0.378657
7.530000 -36.670088 152.874423 -0.000000 0.391953 0.451761 -0.134372 188.511042 225.883609 -0.000000 0.158476 0.194885 -0.378804
7.535000 -40.627597 181.647175 -0.000000 0.396144 0.445748 -0.133367 177.315729 207.194873 -0.000000 0.153661 0.201607 -0.378932
7.540000 -45.947672 212.315963 -0.000000 0.399957 0.439493 -0.132717 167.319311 191.813791 -0.000000 0.149436 0.208743 -0.378918
7.545000 -52.924501 244.725553 -0.000000 0.403404 0.432710 -0.132126 158.855379 179.438502 -0.000000 0.145805 0.216194 -0.378954
7.550000 -62.014490 278.752776 -0.000000 0.406289 0.425426 -0.131556 152.043941 169.597121 -0.000000 0.142613 0.223933 -0.379010
7.555000 -73.253531 314.379814 -0.000000 0.409095 0.417556 -0.131373 147.063180 161.431424 -0.000000 0.139918 0.231969 -0.378961
7.560000 -86.900466 351.485746 -0.000000 0.411639 0.409101 -0.131142 143.655996 154.209840 -0.000000 0.137841 0.240282 -0.378928
7.565000 -102.958652 389.873604 -0.000000 0.413755 0.400150 -0.130898 141.452648 147.166297 -0.000000 0.136299 0.248811 -0.378919
7.570000 -120.629868 429.391497 -0.000000 0.415633 0.390604 -0.130837 140.139148 139.469453 -0.000000 0.135281 0.257590 -0.378799
7.575000 -139.520233 469.650728 -0.000000 0.417234 0.380774 -0.130853 139.052341 130.748084 -0.000000 0.134896 0.266610 -0.378739
7.580000 -158.876007 510.264731 -0.000000 0.418359 0.370620 -0.130899 137.615148 120.818484 -0.000000 0.135131 0.275698 -0.378648
7.585000 -177.633607 550.918993 -0.000000 0.419155 0.360184 -0.130960 135.401029 109.705741 -0.000000 0.135903 0.284745 -0.378532
7.590000 -194.778875 591.359832 -0.000000 0.419398 0.349690 -0.131096 132.147519 97.639105 -0.000000 0.137265 0.293941 -0.378417
7.595000 -209.591597 631.361235 -0.000000 0.418808 0.339154 -0.131113 127.765824 84.972141 -0.000000 0.139071 0.303093 -0.378324
7.600000 -220.498632 671.068288 -0.000000 0.417689 0.328505 -0.131163 122.439585 71.873328 -0.000000 0.141309 0.312294 -0.378173
7.605000 -227.201059 710.216405 -0.000000 0.416053 0.317873 -0.131238 116.244514 58.696881 -0.000000 0.143961 0.321397 -0.377148
7.610000 -227.894364 748.961350 -0.000000 0.413719 0.307128 -0.131112 109.391097 45.432970 -0.000000 0.147274 0.330623 -0.376964
7.615000 -223.390872 786.522609 -0.000000 0.410824 0.296516 -0.131161 101.834844 32.418722 -0.000000 0.150936 0.339655 -0.376696
7.620000 -213.009073 822.493335 -0.000000 0.407409 0.286119 -0.131062 93.595694 19.703553 -0.000000 0.155041 0.348673 -0.376452
7.625000 -196.786928 856.172568 -0.000000 0.403323 0.275854 -0.131585 84.591146 7.419261 -0.000000 0.159631 0.357431 -0.376264
7.630000 -174.436653 886.889012 -0.000000 0.398476 0.265923 -0.131617 74.720242 -4.318769 -0.000000 0.164621 0.366162 -0.375936
7.635000 -147.117978 913.687077 -0.000000 0.393455 0.256219 -0.131943 63.931909 -15.264851 -0.000000 0.170072 0.374682 -0.375856
7.640000 -115.095097 935.903941 -0.000000 0.387844 0.246783 -0.132193 52.277203 -25.345480 -0.000000 0.176058 0.382881 -0.375769
7.645000 -78.512032 952.949455 -0.000000 0.381804 0.237592 -0.132470 39.893599 -34.599936 -0.000000 0.182476 0.391041 -0.375577
7.650000 -39.246017 964.172410 -0.000000 0.375319 0.228804 -0.132666 27.079357 -43.110669 -0.000000 0.189271 0.399024 -0.375505
7.655000 1.539090 969.155036 -0.000000 0.368699 0.220198 -0.132971 14.194483 -51.137049 -0.000000 0.196578 0.406684 -0.375536
7.660000 43.321183 967.491886 -0.000000 0.361918 0.212014 -0.133501 1.579128 -59.017569 -0.000000 0.204353 0.414457 -0.375457
7.665000 84.338882 958.787016 -0.000000 0.354642 0.204261 -0.133856 -10.397552 -67.082249 -0.000000 0.212245 0.422001 -0.375317
7.670000 123.884790 942.676018 -0.000000 0.347075 0.196901 -0.134169 -21.524329 -75.594707 -0.000000 0.220334 0.429479 -0.375263
7.675000 160.834652 918.972421 -0.000000 0.339101 0.190142 -0.134474 -31.688228 -84.637206 -0.000000 0.228580 0.436764 -0.375252
7.680000 193.457646 887.953665 -0.000000 0.331068 0.183892 -0.134806 -40.808311 -94.092770 -0.000000 0.236981 0.443773 -0.374951
7.685000 221.414921 850.102453 -0.000000 0.322874 0.178120 -0.135109 -48.994692 -103.613994 -0.000000 0.245498 0.450562 -0.374466
7.690000 244.322546 806.294249 -0.000000 0.314605 0.172984 -0.135416 -56.405658 -112.726357 -0.000000 0.254368 0.456962 -0.374283
7.695000 260.962784 758.065403 -0.000000 0.306293 0.168298 -0.135674 -63.050864 -120.960290 -0.000000 0.263212 0.463064 -0.373933
7.700000 272.334900 706.565133 -0.000000 0.297668 0.164231 -0.136001 -69.186960 -127.699743 -0.000000 0.272242 0.468430 -0.373365
7.705000 277.509428 653.798465 -0.000000 0.289374 0.160872 -0.136212 -74.668190 -132.603138 -0.000000 0.281530 0.473243 -0.372745
7.710000 277.302267 601.195707 -0.000000 0.280950 0.157966 -0.136325 -79.544921 -135.350040 -0.000000 0.290613 0.477395 -0.372289
7.715000 273.137234 549.684495 -0.000000 0.272554 0.155591 -0.136436 -83.982680 -135.688823 -0.000000 0.299876 0.480603 -0.371968
7.720000 265.926100 500.043512 -0.000000 0.264314 0.153931 -0.136815 -88.045582 -133.567259 -0.000000 0.309394 0.483130 -0.371542
7.725000 256.908195 452.478591 -0.000000 0.255877 0.152896 -0.137000 -91.888519 -128.998326 -0.000000 0.319001 0.484659 -0.371112
7.730000 246.263984 407.422976 -0.000000 0.247541 0.152354 -0.137085 -95.391039 -122.273121 -0.000000 0.328670 0.485545 -0.370814
